{"title":"Predators 2010 R5 LiNE XViD - IMAGiNE","uid":5849309,"size":1425212692,"categoryP":"video","categoryS":"movies","magnet":"?xt=urn:btih:da2c736dc45cbd2c14f4f70c9ed5a41243f75fe3&amp;dn=Predators+2010+R5+LiNE+XViD+-+IMAGiNE&amp;tr=udp%3A%2F%2Ftracker.openbittorrent.com%3A80&amp;tr=udp%3A%2F%2Fopen.demonii.com%3A1337&amp;tr=udp%3A%2F%2Ftracker.coppersurfer.tk%3A6969&amp;tr=udp%3A%2F%2Fexodus.desync.com%3A6969","seeders":0,"leechers":0,"uploader":"YoCkNeR-BeNzO","files":-1,"time":1285321863,"description":"Ripper ...........:IMAGiNE IMDB Rating.......:6.9/10\nVideo Codec.......:XVID Release Date......:09/23/10\nAudio Codec.......:MP3 Theatre Date......:07/09/10\nAudio Bitrate.....:128 Runtime...........:1h 42mn\nSubtitles.........:English Language..........:ENGLISH\nResolution........:720 x 288 IMDb URL..........:http://www.imdb.com/title/tt1424381/\n\n\nDETAILS:\n\nVideo\nFormat : MPEG-4 Visual\nFormat profile : Streaming Video@L1\nFormat settings, BVOP : Yes\nFormat settings, QPel : No\nFormat settings, GMC : No warppoints\nFormat settings, Matrix : Default\nMuxing mode : Packed bitstream\nCodec ID : XVID\nCodec ID/Hint : XviD\nDuration : 1h 42mn\nBit rate : 1 716 Kbps\nWidth : 720 pixels\nHeight : 288 pixels\nDisplay aspect ratio : 2.500\nFrame rate : 25.000 fps\nResolution : 24 bits\nColorimetry : 4:2:0\nScan type : Progressive\nBits/(Pixel*Frame) : 0.331\nStream size : 1.23 GiB (93%)\nWriting library : XviD 50\n\nAudio\nFormat : MPEG Audio\nFormat version : Version 1\nFormat profile : Layer 3\nCodec ID : 55\nCodec ID/Hint : MP3\nDuration : 1h 42mn\nBit rate mode : Constant\nBit rate : 128 Kbps\nChannel(s) : 2 channels\nSampling rate : 44.1 KHz\nResolution : 16 bits\nStream size : 93.9 MiB (7%)\nAlignment : Split accross interleaves\nInterleave, duration : 40 ms (1.00 video frame)\nInterleave, preload duration : 500 ms\n\n\n\n\nSOURCES:\n\nVIDEO: DVD9 R5 from a good mate TY bro...\nAUDIO: PrisM's TS V2 audio\n\nNOTES:\n\nIMAGiNE bringing you another release..... Predators 2010\n\nHere's we go with a nice R5 of Predators for you...\nFirst of thanks to our russian friend for the video and PriSM for the audio. Now the video\nis pretty good so we only slightly adjusted the colors with an rgb filter, also adjusted the\nchroma and gamma as well because it's a fairly dark movie in certain spots.. The audio did\nnot take to long to sync, so it turned out to be okay audio for now, but it would be nice\nto see some different audio pop up...\n\n\n\n\nScreenshots:\n &lt;a href=&quot;\nhttp://img820.imageshack.us/img820/8649/21795.jpg&quot; rel=&quot;nofollow&quot; target=&quot;_NEW&quot;&gt;\nhttp://img820.imageshack.us/img820/8649/21795.jpg&lt;/a&gt;\n &lt;a href=&quot;\nhttp://img705.imageshack.us/img705/9162/21796.jpg&quot; rel=&quot;nofollow&quot; target=&quot;_NEW&quot;&gt;\nhttp://img705.imageshack.us/img705/9162/21796.jpg&lt;/a&gt;","torrent":{"xt":"urn:btih:da2c736dc45cbd2c14f4f70c9ed5a41243f75fe3","amp;dn":"Predators+2010+R5+LiNE+XViD+-+IMAGiNE","amp;tr":["udp%3A%2F%2Ftracker.openbittorrent.com%3A80","udp%3A%2F%2Fopen.demonii.com%3A1337","udp%3A%2F%2Ftracker.coppersurfer.tk%3A6969","udp%3A%2F%2Fexodus.desync.com%3A6969"],"infoHash":"da2c736dc45cbd2c14f4f70c9ed5a41243f75fe3","infoHashBuffer":{"type":"Buffer","data":[218,44,115,109,196,92,189,44,20,244,247,12,158,213,164,18,67,247,95,227]},"announce":[],"urlList":[]}}